<svg xmlns="http://www.w3.org/2000/svg" xmlns:xlink="http://www.w3.org/1999/xlink" width="500" zoomAndPan="magnify" viewBox="0 0 375 374.999991" height="500" preserveAspectRatio="xMidYMid meet" version="1.0"><defs><clipPath id="id1"><path d="M 21.4375 251 L 353.195312 251 L 353.195312 375 L 21.4375 375 Z M 21.4375 251 " clip-rule="nonzero"/></clipPath></defs><rect x="-37.5" width="450" fill="rgb(100%, 100%, 100%)" y="-37.499999" height="449.999989" fill-opacity="1"/><rect x="-37.5" width="450" fill="rgb(100%, 100%, 100%)" y="-37.499999" height="449.999989" fill-opacity="1"/><rect x="-37.5" width="450" fill="rgb(100%, 100%, 100%)" y="-37.499999" height="449.999989" fill-opacity="1"/><path fill="rgb(5.488586%, 21.958923%, 35.688782%)" d="M 138.6875 182.921875 C 138.6875 186.332031 141.460938 189.070312 144.871094 189.070312 L 154.769531 189.070312 C 164.699219 213.972656 192.847656 226.273438 217.855469 216.648438 C 221.03125 215.410156 222.636719 211.835938 221.402344 208.660156 C 220.164062 205.484375 216.585938 203.914062 213.445312 205.117188 C 196.527344 211.632812 177.402344 204.816406 168.441406 189.070312 L 203.546875 189.070312 C 206.957031 189.070312 209.734375 186.332031 209.734375 182.921875 C 209.734375 179.511719 206.957031 176.738281 203.546875 176.738281 L 164.097656 176.738281 C 163.730469 174.429688 163.59375 172.125 163.660156 169.785156 L 208.160156 169.785156 C 211.570312 169.785156 214.347656 167.011719 214.347656 163.601562 C 214.347656 160.191406 211.570312 157.417969 208.160156 157.417969 L 166.203125 157.417969 C 173.625 138.765625 194.6875 129.542969 213.445312 136.761719 C 216.621094 137.996094 220.195312 136.425781 221.402344 133.21875 C 222.636719 130.042969 221.066406 126.464844 217.855469 125.230469 C 192.648438 115.503906 164.332031 128.070312 154.566406 153.273438 C 154.035156 154.644531 153.597656 156.046875 153.199219 157.417969 L 144.871094 157.417969 C 141.460938 157.417969 138.6875 160.191406 138.6875 163.601562 C 138.6875 167.011719 141.460938 169.785156 144.871094 169.785156 L 151.324219 169.785156 C 151.257812 172.125 151.359375 174.429688 151.660156 176.738281 L 144.871094 176.738281 C 141.460938 176.738281 138.6875 179.511719 138.6875 182.921875 " fill-opacity="1" fill-rule="nonzero"/><path fill="rgb(5.488586%, 21.958923%, 35.688782%)" d="M 191.175781 93.742188 C 233.835938 93.742188 268.40625 128.304688 268.40625 170.957031 C 268.40625 213.570312 233.835938 248.132812 191.175781 248.132812 C 148.550781 248.132812 113.980469 213.570312 113.980469 170.957031 C 114.015625 128.339844 148.550781 93.777344 191.175781 93.742188 Z M 191.175781 260.5 C 240.660156 260.5 280.777344 220.390625 280.777344 170.957031 C 280.777344 121.484375 240.660156 81.375 191.175781 81.375 C 141.730469 81.375 101.609375 121.484375 101.609375 170.957031 C 101.675781 220.390625 141.730469 260.433594 191.175781 260.5 " fill-opacity="1" fill-rule="nonzero"/><g clip-path="url(#id1)"><path fill="rgb(5.488586%, 21.958923%, 35.688782%)" d="M 233.871094 357.132812 C 220.464844 363.214844 205.488281 364.886719 191.042969 361.914062 L 115.285156 340.652344 C 106.757812 338.246094 97.597656 339.25 89.808594 343.429688 L 83.324219 346.90625 L 85.0625 283.664062 C 105.65625 269.992188 132.066406 268.554688 154.035156 279.988281 L 158.582031 282.359375 C 166.539062 286.472656 175.296875 288.710938 184.222656 288.980469 L 228.890625 290.214844 C 241.425781 290.550781 252.09375 299.472656 254.632812 311.773438 L 188.101562 309.96875 C 184.691406 309.835938 181.847656 312.542969 181.75 315.953125 C 181.648438 319.363281 184.355469 322.203125 187.765625 322.304688 L 261.1875 324.34375 L 261.351562 324.34375 C 264.695312 324.308594 267.4375 321.667969 267.539062 318.292969 C 267.605469 315.617188 267.40625 312.945312 266.9375 310.304688 L 316.585938 286.839844 L 316.71875 286.773438 C 323.738281 283.230469 332.265625 284.433594 338.046875 289.78125 Z M 33.941406 358.738281 L 36.582031 263.644531 L 73.226562 264.644531 L 70.585938 359.773438 Z M 311.203125 275.742188 L 262.824219 298.570312 C 256.136719 286.136719 243.332031 278.25 229.222656 277.847656 L 184.558594 276.613281 C 177.46875 276.445312 170.550781 274.640625 164.265625 271.363281 L 159.71875 269.023438 C 136.449219 256.890625 108.699219 256.925781 85.460938 269.089844 L 85.730469 258.828125 C 85.828125 255.421875 83.121094 252.546875 79.746094 252.480469 L 30.734375 251.140625 C 27.324219 251.007812 24.480469 253.714844 24.378906 257.125 L 21.4375 364.585938 C 21.335938 367.996094 24.046875 370.835938 27.457031 370.9375 L 76.433594 372.273438 L 76.601562 372.273438 C 79.945312 372.273438 82.6875 369.632812 82.789062 366.257812 L 82.921875 361.144531 L 95.625 354.324219 C 100.640625 351.617188 106.492188 350.984375 111.941406 352.519531 L 187.933594 373.84375 C 188.066406 373.914062 188.167969 373.945312 188.335938 373.945312 C 193.820312 375.117188 199.402344 375.683594 205.019531 375.683594 C 216.921875 375.683594 228.65625 373.144531 239.453125 368.164062 C 239.722656 368.0625 239.957031 367.929688 240.222656 367.761719 L 350.386719 296.5 C 353.125 294.726562 354.03125 291.117188 352.425781 288.277344 C 344.234375 273.769531 326.113281 268.253906 311.203125 275.742188 " fill-opacity="1" fill-rule="nonzero"/></g><path fill="rgb(5.488586%, 21.958923%, 35.688782%)" d="M 191.175781 70.210938 C 194.585938 70.210938 197.363281 67.4375 197.363281 64.027344 L 197.363281 5.367188 C 197.363281 1.957031 194.585938 -0.816406 191.175781 -0.816406 C 187.765625 -0.816406 185.027344 1.957031 185.027344 5.367188 L 185.027344 64.027344 C 185.027344 67.4375 187.765625 70.210938 191.175781 70.210938 " fill-opacity="1" fill-rule="nonzero"/><path fill="rgb(5.488586%, 21.958923%, 35.688782%)" d="M 237.515625 70.210938 C 240.925781 70.210938 243.699219 67.4375 243.699219 64.027344 L 243.699219 36.253906 C 243.699219 32.808594 240.925781 30.070312 237.515625 30.070312 C 234.105469 30.070312 231.332031 32.808594 231.332031 36.253906 L 231.332031 64.027344 C 231.332031 67.4375 234.105469 70.210938 237.515625 70.210938 " fill-opacity="1" fill-rule="nonzero"/><path fill="rgb(5.488586%, 21.958923%, 35.688782%)" d="M 144.871094 70.210938 C 148.28125 70.210938 151.023438 67.4375 151.023438 64.027344 L 151.023438 36.253906 C 151.023438 32.808594 148.28125 30.070312 144.871094 30.070312 C 141.460938 30.070312 138.6875 32.808594 138.6875 36.253906 L 138.6875 64.027344 C 138.6875 67.4375 141.460938 70.210938 144.871094 70.210938 " fill-opacity="1" fill-rule="nonzero"/></svg>